<?xml version="1.0" encoding="UTF-8"?>
<svg width="180px" height="224px" viewBox="0 0 180 224" version="1.1" xmlns="http://www.w3.org/2000/svg" xmlns:xlink="http://www.w3.org/1999/xlink">
    <!-- Generator: Sketch 49.3 (51167) - http://www.bohemiancoding.com/sketch -->
    <title>book</title>
    <desc>Created with Sketch.</desc>
    <defs></defs>
    <g id="Page-1" stroke="none" stroke-width="1" fill="none" fill-rule="evenodd">
        <g id="Dashboard" transform="translate(-844.000000, -1359.000000)" fill="#96D1F6" fill-rule="nonzero">
            <g id="book" transform="translate(844.000000, 1359.000000)">
                <path d="M154.58879,0 L32.4358303,0 C29.832242,0 27.7213201,2.11060606 27.7213201,4.71380471 L27.7213201,41.2929293 L4.71451021,41.2929293 C2.11092195,41.2929293 0,43.4035354 0,46.006734 L0,219.286195 C0,221.889394 2.11092195,224 4.71451021,224 L154.58879,224 C168.612101,223.974074 179.97407,212.613805 180,198.592593 L180,25.4074074 C179.97407,11.3861953 168.612101,0.0259259259 154.58879,0 Z M170.57098,198.592593 C170.57098,207.418013 163.415532,214.572391 154.58879,214.572391 L9.42902043,214.572391 L9.42902043,50.7205387 L87.4541645,50.7205387 L87.4541645,119.212121 C87.4647721,121.81532 89.5845338,123.917088 92.1881221,123.906481 C93.4156627,123.901178 94.5925223,123.418013 95.4688318,122.558923 L111.262441,107.286195 L127.05605,122.794613 C128.915335,124.617088 131.90021,124.587037 133.722957,122.72803 C134.582177,121.851852 135.065414,120.675168 135.070718,119.447811 L135.070718,50.7205387 L154.58879,50.7205387 C160.408853,50.7311448 166.053889,48.73367 170.57098,45.0639731 L170.57098,198.592593 Z M96.8831849,107.993266 L96.8831849,50.7205387 L125.641697,50.7205387 L125.641697,107.993266 L114.562598,97.1043771 C112.729243,95.3078283 109.795639,95.3078283 107.962284,97.1043771 L96.8831849,107.993266 Z M154.58879,41.3872054 L154.58879,41.2929293 L37.1503405,41.2929293 L37.1503405,9.42760943 L154.58879,9.42760943 C163.415532,9.42760943 170.57098,16.5819865 170.57098,25.4074074 C170.57098,34.2328283 163.415532,41.3872054 154.58879,41.3872054 Z" id="Shape"></path>
            </g>
        </g>
    </g>
</svg>