<?xml version="1.0" encoding="UTF-8"?>
<svg width="192px" height="192px" viewBox="0 0 192 192" version="1.1" xmlns="http://www.w3.org/2000/svg" xmlns:xlink="http://www.w3.org/1999/xlink">
    <!-- Generator: Sketch 49.3 (51167) - http://www.bohemiancoding.com/sketch -->
    <title>call-answer</title>
    <desc>Created with Sketch.</desc>
    <defs></defs>
    <g id="Page-1" stroke="none" stroke-width="1" fill="none" fill-rule="evenodd">
        <g id="Dashboard" transform="translate(-832.000000, -1890.000000)" fill="#00FD87" fill-rule="nonzero">
            <g id="call-answer" transform="translate(832.000000, 1890.000000)">
                <g id="Group" transform="translate(96.000000, 96.000000) scale(-1, 1) translate(-96.000000, -96.000000) ">
                    <g id="Shape">
                        <path d="M187.1989,151.769931 L157.625948,122.10869 C151.735564,116.225103 141.980974,116.403862 135.885387,122.519172 L120.986407,137.457655 C120.045112,136.937379 119.070808,136.393931 118.046441,135.817379 C108.637891,130.589241 95.7606877,123.423448 82.2101089,109.824 C68.6193696,96.1958621 61.4675072,83.2617931 56.2383954,73.8201379 C55.6866017,72.8198621 55.157914,71.8554483 54.6358281,70.9395862 L64.6352321,60.9263448 L69.5513123,55.990069 C75.6562521,49.865931 75.824596,40.086069 69.9479656,34.1853793 L40.3750143,4.52082759 C34.498384,-1.37158621 24.7393926,-1.19282759 18.6344527,4.93131034 L10.2997822,13.337931 L10.5275415,13.5646897 C7.73281375,17.1409655 5.39745559,21.2656552 3.65955301,25.7136552 C2.05753582,29.9475862 1.06012607,33.9878621 0.604057307,38.0364138 C-3.3008596,70.502069 11.4924928,100.173241 51.6397479,140.436414 C107.13545,196.087724 151.857696,191.883586 153.787049,191.678345 C157.989043,191.174621 162.016092,190.167724 166.108607,188.573793 C170.505352,186.85131 174.615473,184.512552 178.179301,181.715862 L178.361398,181.878069 L186.804997,173.586207 C192.897284,167.463172 193.072779,157.68 187.1989,151.769931 Z"></path>
                    </g>
                </g>
            </g>
        </g>
    </g>
</svg>