<?xml version="1.0" encoding="UTF-8"?>
<svg width="325px" height="130px" viewBox="0 0 325 130" version="1.1" xmlns="http://www.w3.org/2000/svg" xmlns:xlink="http://www.w3.org/1999/xlink">
    <!-- Generator: Sketch 49.3 (51167) - http://www.bohemiancoding.com/sketch -->
    <title>eyeglasses (1)</title>
    <desc>Created with Sketch.</desc>
    <defs></defs>
    <g id="Page-1" stroke="none" stroke-width="1" fill="none" fill-rule="evenodd">
        <g id="Dashboard" transform="translate(-156.000000, -1921.000000)" fill="#99CFF1" fill-rule="nonzero">
            <g id="eyeglasses-(1)" transform="translate(156.000000, 1921.000000)">
                <path d="M319.583333,54.1666667 L307.775,54.1666667 C302.62375,23.4758333 276.0875,0 244.14,0 C212.604167,0 186.203333,22.31125 180.087917,51.88625 C174.828333,47.4770833 168.826667,45.1370833 162.5,45.1370833 C156.17875,45.1370833 150.1825,47.4770833 144.922917,51.8808333 C138.877917,22.3058333 112.802083,0 81.64,0 C47.4283333,0 19.3104167,26.27625 16.52625,59.5833333 L5.41666667,59.5833333 C2.42125,59.5833333 0,62.01 0,65 C0,67.99 2.42125,70.4166667 5.41666667,70.4166667 L16.52625,70.4166667 C19.3104167,103.72375 47.4283333,130 81.64,130 C116.669583,130 145.21,101.795417 146.157917,66.7820833 C150.778333,59.8216667 156.530833,55.9704167 162.5,55.9704167 C168.469167,55.9704167 174.221667,59.8270833 178.842083,66.7820833 C179.80625,101.795417 208.693333,130 244.14,130 C279.765417,130 308.75,100.842083 308.75,65 L319.583333,65 C322.57875,65 325,62.5733333 325,59.5833333 C325,56.5933333 322.57875,54.1666667 319.583333,54.1666667 Z M81.64,119.166667 C51.56125,119.166667 27.0833333,94.8675 27.0833333,65 C27.0833333,35.1325 51.56125,10.8333333 81.64,10.8333333 C111.8,10.8333333 135.416667,34.62875 135.416667,65 C135.416667,95.37125 111.8,119.166667 81.64,119.166667 Z M244.14,119.166667 C214.06125,119.166667 189.583333,94.8675 189.583333,65 C189.583333,35.1325 214.06125,10.8333333 244.14,10.8333333 C274.3,10.8333333 297.916667,34.62875 297.916667,65 C297.916667,95.37125 274.3,119.166667 244.14,119.166667 Z" id="Shape"></path>
            </g>
        </g>
    </g>
</svg>