<?xml version="1.0" encoding="UTF-8"?>
<svg width="215px" height="213px" viewBox="0 0 215 213" version="1.1" xmlns="http://www.w3.org/2000/svg" xmlns:xlink="http://www.w3.org/1999/xlink">
    <!-- Generator: Sketch 49.3 (51167) - http://www.bohemiancoding.com/sketch -->
    <title>headphones</title>
    <desc>Created with Sketch.</desc>
    <defs></defs>
    <g id="Page-1" stroke="none" stroke-width="1" fill="none" fill-rule="evenodd">
        <g id="Dashboard" transform="translate(-206.000000, -1359.000000)" fill="#00FD87" fill-rule="nonzero">
            <g id="headphones" transform="translate(206.000000, 1359.000000)">
                <path d="M215,107.466091 C215,78.7593952 203.817423,51.7548596 183.523116,31.4669546 C163.22881,11.1790497 136.215753,0 107.5,0 C78.7842466,0 51.7711901,11.1790497 31.4768836,31.4669546 C11.1825771,51.7548596 0,78.7593952 0,107.466091 L0,158.346868 C0,187.099568 23.4235873,210.515767 52.1853596,210.515767 C55.6367723,210.515767 58.3979024,207.755508 58.3979024,204.305184 L58.3979024,112.434557 C58.3979024,108.984233 55.6367723,106.223974 52.1853596,106.223974 C36.2628425,106.223974 21.9970034,113.354644 12.4250856,124.625702 L12.4250856,107.466091 C12.4250856,55.0671706 55.0845462,12.4211663 107.5,12.4211663 C159.915454,12.4211663 202.574914,55.0671706 202.574914,107.466091 C202.574914,107.88013 202.620933,108.294168 202.712971,108.708207 C202.620933,109.122246 202.574914,109.536285 202.574914,109.950324 L202.574914,127.109935 C193.002997,115.838877 178.737158,108.708207 162.81464,108.708207 C159.363228,108.708207 156.602098,111.468467 156.602098,114.91879 L156.602098,206.789417 C156.602098,210.239741 159.363228,213 162.81464,213 C191.576413,213 215,189.583801 215,160.831102 L215,109.950324 C215,109.536285 214.953981,109.122246 214.861943,108.708207 C214.953981,108.294168 215,107.88013 215,107.466091 Z M45.9267979,119.105184 L45.9267979,197.588553 C26.9670377,194.598272 12.3790668,178.128726 12.3790668,158.346868 C12.4250856,138.565011 26.9670377,122.095464 45.9267979,119.105184 Z M169.073202,200.072786 L169.073202,121.589417 C188.032962,124.579698 202.620933,141.049244 202.620933,160.831102 C202.574914,180.658963 188.032962,197.082505 169.073202,200.072786 Z" id="Shape"></path>
            </g>
        </g>
    </g>
</svg>