<?xml version="1.0" encoding="UTF-8"?>
<svg width="279px" height="279px" viewBox="0 0 279 279" version="1.1" xmlns="http://www.w3.org/2000/svg" xmlns:xlink="http://www.w3.org/1999/xlink">
    <!-- Generator: Sketch 49.3 (51167) - http://www.bohemiancoding.com/sketch -->
    <title>lungs</title>
    <desc>Created with Sketch.</desc>
    <defs></defs>
    <g id="Page-1" stroke="none" stroke-width="1" fill="none" fill-rule="evenodd">
        <g id="Dashboard" transform="translate(-179.000000, -852.000000)" fill-rule="nonzero">
            <g id="lungs" transform="translate(179.000000, 852.000000)">
                <circle id="Oval" fill="#FFFFFF" cx="139.5" cy="139.5" r="139.5"></circle>
                <polygon id="Shape" fill="#AADEFF" points="146.184279 65.2130359 146.184279 10 131.815721 10 131.815721 65.2130359 104 92.9112501 114.13155 103 139 78.2371473 163.86845 103 174 92.9112501"></polygon>
                <g id="Group" transform="translate(33.000000, 46.000000)" fill="#AADEFF">
                    <path d="M69.8235846,0.0491641791 C69.8235846,0.0491641791 4.26764615,21.1646328 0.00873846154,155.082394 C0.00873846154,155.082394 -1.47297692,188.237624 34.8238615,181.940239 C71.1207,175.642854 98.5277923,160.82477 96.4906385,134.707666 C94.4534846,108.591107 91.1203077,49.6896896 91.8608923,37.2795582 C92.4163308,26.5360925 93.7129,-1.24713134 69.8235846,0.0491641791 Z" id="Shape"></path>
                    <path d="M142.787008,0.0491641791 C142.787008,0.0491641791 208.342946,21.1646328 212.601854,155.082394 C212.601854,155.082394 214.083569,188.237624 177.786731,181.940239 C141.489892,175.642854 114.0828,160.82477 116.119954,134.707666 C118.157108,108.590561 121.490285,49.6896896 120.7497,37.2795582 C120.194262,26.5360925 118.898238,-1.24713134 142.787008,0.0491641791 Z" id="Shape"></path>
                </g>
            </g>
        </g>
    </g>
</svg>