<?xml version="1.0" encoding="UTF-8"?>
<svg width="234px" height="205px" viewBox="0 0 234 205" version="1.1" xmlns="http://www.w3.org/2000/svg" xmlns:xlink="http://www.w3.org/1999/xlink">
    <!-- Generator: Sketch 49.3 (51167) - http://www.bohemiancoding.com/sketch -->
    <title>meditation</title>
    <desc>Created with Sketch.</desc>
    <defs></defs>
    <g id="Page-1" stroke="none" stroke-width="1" fill="none" fill-rule="evenodd">
        <g id="Dashboard" transform="translate(-817.000000, -883.000000)" fill-rule="nonzero">
            <g id="meditation" transform="translate(817.000000, 883.000000)">
                <path d="M189.336654,96.6699069 C189.382945,111.541208 186.519492,126.666711 180.423272,141.263636 C168.051772,170.879138 144.709211,192.695087 117,204 C146.96172,204 176.949383,192.771247 199.809699,170.105437 C222.670015,147.440131 234.066853,117.707112 234,88 C218.800869,87.9650132 203.612206,90.8600877 189.336654,96.6699069 Z" id="XMLID_460_" fill="#00FD87"></path>
                <path d="M53.5790547,141.266183 C47.4825696,126.669064 44.6195007,111.542334 44.6652854,96.6703215 C30.3891119,90.8597201 15.1997884,87.9650116 0,88 C-0.0663516001,117.708532 11.3309826,147.442973 34.1917844,170.109363 C57.0530949,192.776256 87.0420634,204.005546 117,204 C89.2895827,192.695049 65.951094,170.883101 53.5790547,141.266183 Z" id="XMLID_461_" fill="#72FDBC"></path>
                <path d="M181.004402,141.668991 C187.15648,126.9341 190.045657,111.664598 189.999455,96.6522185 C189.952739,81.2136779 186.799183,66.0368421 180.901218,52 C166.71766,57.7880525 153.683509,66.3036383 142.638107,77.196969 C148.473956,91.0433878 151.695275,106.245681 151.695275,122.197957 C151.695275,154.559729 138.428061,183.844688 117,205 C144.963103,193.588351 168.519545,171.565443 181.004402,141.668991 Z" id="XMLID_462_" fill="#BCFDDC"></path>
                <path d="M92.3652284,77.1977237 C81.3190507,66.3040667 68.283986,57.7882259 54.0994329,52 C48.2010533,66.0367533 45.0467627,81.2140437 45.0005573,96.6535559 C44.9538385,111.666385 47.8437313,126.935835 53.9962408,141.671676 C66.4819743,171.569024 90.0349346,193.5875 118,205 C96.5755697,183.844564 83.3074243,154.558218 83.3074243,122.200569 C83.3074243,106.247306 86.5289694,91.0445572 92.3652284,77.1977237 Z" id="XMLID_463_" fill="#06FD8D"></path>
                <circle id="XMLID_464_" fill="#00FD87" cx="117" cy="10" r="10"></circle>
                <circle id="XMLID_466_" fill="#72FDBC" cx="81" cy="24" r="10"></circle>
                <circle id="XMLID_467_" fill="#00FD87" cx="153" cy="24" r="10"></circle>
                <path d="M117,205 C137.999704,183.922247 151,154.748201 151,122.505073 C151,106.611787 147.845516,91.4642132 142.125185,77.666021 C136.243859,63.4619996 127.645753,50.6885261 117,40 L117,205 Z" id="XMLID_468_" fill="#00FD87"></path>
                <path d="M91.874815,77.666021 C86.1544836,91.4642132 83,106.611787 83,122.505073 C83,154.743129 96.0002959,183.917174 117,205 L117,40 C106.354247,50.6885261 97.7561409,63.4619996 91.874815,77.666021 Z" id="XMLID_469_" fill="#BCFDDC"></path>
            </g>
        </g>
    </g>
</svg>